<svg version="1.1" id="Layer_1" xmlns="http://www.w3.org/2000/svg" xmlns:xlink="http://www.w3.org/1999/xlink" x="0px" y="0px"
	 width="100%" viewBox="0 0 200 200" enable-background="new 0 0 200 200" xml:space="preserve">
<path fill="#FDFEFE" opacity="1.000000" stroke="none" 
	d="
M110.000000,201.000000 
	C73.355949,201.000000 37.211899,201.000000 1.033923,201.000000 
	C1.033923,134.397644 1.033923,67.795280 1.033923,1.096454 
	C67.560547,1.096454 134.121292,1.096454 200.841003,1.096454 
	C200.841003,67.666367 200.841003,134.333145 200.841003,201.000000 
	C170.795563,201.000000 140.647781,201.000000 110.000000,201.000000 
M138.844727,126.109055 
	C138.844727,126.109055 138.864746,126.175987 139.173645,126.678894 
	C139.878616,126.508942 140.583588,126.338982 141.878357,126.113083 
	C142.502518,125.433838 143.126663,124.754593 144.317780,123.745186 
	C144.208649,122.829247 144.099503,121.913300 143.938019,120.365845 
	C141.922729,118.813683 140.050430,114.112053 137.303909,120.542877 
	C136.674561,121.788109 136.045227,123.033340 135.262711,124.581673 
	C136.135193,124.751633 136.882065,124.897118 137.938507,125.509438 
	C138.224655,125.726303 138.510818,125.943176 138.844727,126.109055 
M133.980133,168.130692 
	C133.980133,168.130692 133.778778,168.060623 133.517456,167.145432 
	C133.517456,159.835175 133.517456,152.524918 133.517456,144.250946 
	C131.476456,145.106827 130.355911,145.576706 129.101318,146.694397 
	C129.144226,147.131149 129.187134,147.567886 129.037781,148.787033 
	C129.101471,149.853363 129.165161,150.919708 129.097107,152.888046 
	C129.139053,155.924454 129.181000,158.960876 129.060333,162.493530 
	C129.116364,162.658356 129.172394,162.823166 129.097595,163.783859 
	C129.144302,164.855270 129.191010,165.926666 129.065979,167.500000 
	C129.119827,167.668427 129.173691,167.836853 129.100998,168.649612 
	C129.145386,169.083008 129.189774,169.516418 129.118729,170.650940 
	C130.101349,170.909897 131.083984,171.168854 132.905334,171.635391 
	C134.913330,171.567444 136.921341,171.499496 139.577820,171.701172 
	C140.162430,170.768661 140.747025,169.836166 141.331635,168.903656 
	C139.893967,168.606369 138.456284,168.309067 136.404724,167.983704 
	C135.908722,168.325592 135.412720,168.667496 134.607117,168.763107 
	C134.390091,168.613052 134.167374,168.471970 133.980133,168.130692 
M26.092388,145.004105 
	C23.828205,145.004105 21.564020,145.004105 19.304630,145.004105 
	C19.304630,154.163635 19.304630,162.856430 19.304630,171.549240 
	C19.764139,171.794785 20.223648,172.040329 20.683159,172.285873 
	C21.483013,171.191635 22.813829,170.169479 22.974211,168.988388 
	C23.328058,166.382553 23.092089,163.696609 23.819193,160.941330 
	C24.536003,160.835846 25.252813,160.730362 26.683594,160.779541 
	C29.135078,158.868683 32.460117,157.424286 33.797955,154.918777 
	C35.199619,152.293747 34.596817,148.684372 31.026045,146.983505 
	C31.026045,146.983505 31.164623,146.859177 30.836645,146.260086 
	C29.553564,145.899094 28.270481,145.538101 26.092388,145.004105 
M123.094482,123.114731 
	C126.404633,117.775223 130.158722,112.650932 132.884644,107.028183 
	C135.070572,102.519302 133.701035,97.658241 130.266174,94.105774 
	C127.658058,91.408348 124.337105,89.311234 121.095711,87.337196 
	C116.874687,84.766525 112.598015,82.129639 108.029579,80.316917 
	C94.949966,75.127052 93.789719,72.316887 82.523621,83.386177 
	C80.037918,85.828461 76.001083,87.044159 72.455276,87.965645 
	C68.088623,89.100441 64.265892,90.935242 63.428085,95.413246 
	C61.215828,107.237541 63.057407,116.265793 76.243217,120.816124 
	C81.151161,122.509827 85.612488,125.472099 90.346458,127.709961 
	C91.924477,128.455917 93.723091,129.183441 95.411018,129.161499 
	C99.817360,129.104294 103.816246,128.486511 108.045509,125.978256 
	C111.943024,123.666763 117.586952,124.299957 123.094482,123.114731 
M125.222137,29.001871 
	C117.779579,26.434351 112.016327,28.944185 111.214371,36.600250 
	C110.542839,43.011208 111.836243,49.725845 112.928627,56.193005 
	C113.815231,61.441917 118.599632,62.791294 123.016075,59.565605 
	C128.778793,55.356632 127.714272,48.618656 128.849609,42.857941 
	C129.754547,38.266350 130.424454,33.118717 125.222137,29.001871 
M51.958546,50.192043 
	C47.340885,56.549763 49.584782,72.387459 55.788284,77.093147 
	C56.446144,77.592163 57.243980,78.380989 57.907578,78.316978 
	C60.977409,78.020851 65.134239,78.573898 66.879257,76.815613 
	C73.482475,70.162170 68.722221,52.521248 59.792564,49.577785 
	C57.648571,48.871075 55.020912,49.631676 51.958546,50.192043 
M133.897125,69.533699 
	C133.771881,72.680283 133.491974,75.830177 133.559326,78.972633 
	C133.649826,83.196434 136.888824,84.120003 140.129715,84.102448 
	C143.770584,84.082718 151.295792,77.658981 151.591263,73.982155 
	C152.090683,67.767693 152.153748,61.472610 151.772339,55.249912 
	C151.542023,51.492550 145.835663,49.828743 142.925659,52.355717 
	C137.934219,56.690136 135.533371,62.465137 133.897125,69.533699 
M97.915688,48.323147 
	C99.571945,41.402187 96.968979,35.949230 91.867798,31.523439 
	C87.223022,27.493631 81.572556,29.641022 79.739822,35.418152 
	C76.966263,44.160992 81.896034,50.850410 85.332108,57.792786 
	C87.165047,61.496105 92.052773,61.364212 94.432678,57.800705 
	C96.114464,55.282509 96.743294,52.061089 97.915688,48.323147 
M106.941406,156.012421 
	C109.077927,161.496048 111.214447,166.979691 113.666595,173.273407 
	C117.867867,163.483826 121.740005,154.461166 125.612152,145.438492 
	C125.130699,145.147690 124.649246,144.856903 124.167786,144.566101 
	C116.548973,147.171234 118.720291,156.876480 113.407684,161.263138 
	C111.212837,155.591095 109.041481,149.979752 106.625916,143.737289 
	C104.084023,150.104370 101.871201,155.647186 99.220413,162.287048 
	C97.006699,156.787323 95.132355,152.558380 93.612648,148.205627 
	C92.591232,145.280090 91.116104,144.043152 87.840927,145.529129 
	C91.546928,154.555145 95.247757,163.568558 99.266541,173.356369 
	C100.715012,169.724060 101.795288,166.992920 102.892838,164.268738 
	C104.070457,161.345825 105.264305,158.429428 106.941406,156.012421 
M83.880981,149.733032 
	C82.637276,148.642822 81.504105,147.381607 80.129913,146.493240 
	C75.279854,143.357834 68.914833,143.566223 64.202019,147.019608 
	C59.522316,150.448746 57.306084,155.051819 58.451809,160.870224 
	C59.638134,166.894806 63.612808,170.529800 69.407761,171.788071 
	C75.429161,173.095551 80.703468,171.187180 84.333328,166.115479 
	C88.003494,160.987488 87.868988,155.598267 83.880981,149.733032 
M49.164745,161.906799 
	C49.636875,160.977921 50.190937,160.080795 50.565582,159.114136 
	C51.635765,156.352890 53.559769,153.520126 53.432598,150.795547 
	C53.260029,147.098267 49.943615,145.336517 46.323952,145.029831 
	C43.869247,144.821854 41.382656,144.990128 38.375565,144.990128 
	C38.375565,153.228760 38.308868,161.187531 38.469860,169.141693 
	C38.487640,170.020309 39.807354,170.872589 40.523247,171.737076 
	C41.281937,170.906891 42.585869,170.142197 42.694920,169.234009 
	C42.996487,166.722565 42.799320,164.151230 42.799320,160.243759 
	C45.335342,163.711624 46.983856,165.942673 48.607681,168.191559 
	C51.341328,171.977478 51.334747,171.982224 55.850426,171.050903 
	C53.713863,168.138306 51.661541,165.340546 49.164745,161.906799 
M165.628098,165.227448 
	C165.628098,167.198242 165.628098,169.169022 165.628098,171.139816 
	C166.335052,171.409851 167.041992,171.679886 167.748947,171.949921 
	C172.492645,170.277740 168.178299,164.254578 170.476913,161.572723 
	C175.013550,164.207977 175.086441,172.319382 183.357529,171.614899 
	C180.310913,167.391632 177.831528,163.954666 175.318085,160.470505 
	C179.892136,158.267029 182.065903,155.015182 180.617599,150.243378 
	C179.201370,145.577209 174.543472,144.136307 165.628540,145.428513 
	C165.628540,151.676743 165.628540,157.984955 165.628098,165.227448 
M148.780518,171.737442 
	C152.565948,171.117126 156.884872,173.162781 161.220856,169.591156 
	C156.604980,168.780182 153.124557,168.168701 149.640381,167.556564 
	C149.640381,164.538635 149.640381,161.959900 149.640381,159.419815 
	C159.749725,158.251572 159.749725,158.251572 159.347183,154.869110 
	C156.144409,154.869110 152.879837,154.869110 149.310562,154.869110 
	C149.439804,152.685059 149.542496,150.949600 149.640717,149.289642 
	C159.931259,148.185623 159.931259,148.185623 159.696823,145.182343 
	C154.955963,145.182343 150.217361,145.182343 145.073761,145.182343 
	C145.073761,153.393524 144.990585,161.337112 145.195679,169.273254 
	C145.217438,170.115555 146.928558,170.914215 148.780518,171.737442 
z"/>
<path fill="#04466C" opacity="1.000000" stroke="none" 
	d="
M122.778046,123.375397 
	C117.586952,124.299957 111.943024,123.666763 108.045509,125.978256 
	C103.816246,128.486511 99.817360,129.104294 95.411018,129.161499 
	C93.723091,129.183441 91.924477,128.455917 90.346458,127.709961 
	C85.612488,125.472099 81.151161,122.509827 76.243217,120.816124 
	C63.057407,116.265793 61.215828,107.237541 63.428085,95.413246 
	C64.265892,90.935242 68.088623,89.100441 72.455276,87.965645 
	C76.001083,87.044159 80.037918,85.828461 82.523621,83.386177 
	C93.789719,72.316887 94.949966,75.127052 108.029579,80.316917 
	C112.598015,82.129639 116.874687,84.766525 121.095711,87.337196 
	C124.337105,89.311234 127.658058,91.408348 130.266174,94.105774 
	C133.701035,97.658241 135.070572,102.519302 132.884644,107.028183 
	C130.158722,112.650932 126.404633,117.775223 122.778046,123.375397 
z"/>
<path fill="#09486C" opacity="1.000000" stroke="none" 
	d="
M125.557030,29.225304 
	C130.424454,33.118717 129.754547,38.266350 128.849609,42.857941 
	C127.714272,48.618656 128.778793,55.356632 123.016075,59.565605 
	C118.599632,62.791294 113.815231,61.441917 112.928627,56.193005 
	C111.836243,49.725845 110.542839,43.011208 111.214371,36.600250 
	C112.016327,28.944185 117.779579,26.434351 125.557030,29.225304 
z"/>
<path fill="#0A496B" opacity="1.000000" stroke="none" 
	d="
M52.287117,49.954750 
	C55.020912,49.631676 57.648571,48.871075 59.792564,49.577785 
	C68.722221,52.521248 73.482475,70.162170 66.879257,76.815613 
	C65.134239,78.573898 60.977409,78.020851 57.907578,78.316978 
	C57.243980,78.380989 56.446144,77.592163 55.788284,77.093147 
	C49.584782,72.387459 47.340885,56.549763 52.287117,49.954750 
z"/>
<path fill="#0B486C" opacity="1.000000" stroke="none" 
	d="
M133.948013,69.117371 
	C135.533371,62.465137 137.934219,56.690136 142.925659,52.355717 
	C145.835663,49.828743 151.542023,51.492550 151.772339,55.249912 
	C152.153748,61.472610 152.090683,67.767693 151.591263,73.982155 
	C151.295792,77.658981 143.770584,84.082718 140.129715,84.102448 
	C136.888824,84.120003 133.649826,83.196434 133.559326,78.972633 
	C133.491974,75.830177 133.771881,72.680283 133.948013,69.117371 
z"/>
<path fill="#09486B" opacity="1.000000" stroke="none" 
	d="
M97.878937,48.738377 
	C96.743294,52.061089 96.114464,55.282509 94.432678,57.800705 
	C92.052773,61.364212 87.165047,61.496105 85.332108,57.792786 
	C81.896034,50.850410 76.966263,44.160992 79.739822,35.418152 
	C81.572556,29.641022 87.223022,27.493631 91.867798,31.523439 
	C96.968979,35.949230 99.571945,41.402187 97.878937,48.738377 
z"/>
<path fill="#184D6B" opacity="1.000000" stroke="none" 
	d="
M106.696236,155.761307 
	C105.264305,158.429428 104.070457,161.345825 102.892838,164.268738 
	C101.795288,166.992920 100.715012,169.724060 99.266541,173.356369 
	C95.247757,163.568558 91.546928,154.555145 87.840927,145.529129 
	C91.116104,144.043152 92.591232,145.280090 93.612648,148.205627 
	C95.132355,152.558380 97.006699,156.787323 99.220413,162.287048 
	C101.871201,155.647186 104.084023,150.104370 106.625916,143.737289 
	C109.041481,149.979752 111.212837,155.591095 113.407684,161.263138 
	C118.720291,156.876480 116.548973,147.171234 124.167786,144.566101 
	C124.649246,144.856903 125.130699,145.147690 125.612152,145.438492 
	C121.740005,154.461166 117.867867,163.483826 113.666595,173.273407 
	C111.214447,166.979691 109.077927,161.496048 106.696236,155.761307 
z"/>
<path fill="#1B506D" opacity="1.000000" stroke="none" 
	d="
M84.094589,150.040039 
	C87.868988,155.598267 88.003494,160.987488 84.333328,166.115479 
	C80.703468,171.187180 75.429161,173.095551 69.407761,171.788071 
	C63.612808,170.529800 59.638134,166.894806 58.451809,160.870224 
	C57.306084,155.051819 59.522316,150.448746 64.202019,147.019608 
	C68.914833,143.566223 75.279854,143.357834 80.129913,146.493240 
	C81.504105,147.381607 82.637276,148.642822 84.094589,150.040039 
M65.526627,151.094254 
	C61.327518,156.635803 61.623833,162.238342 66.313583,165.973877 
	C70.673004,169.446274 77.027992,168.713181 80.489655,164.338531 
	C83.283897,160.807312 83.225418,155.362656 80.356239,151.916794 
	C76.868851,147.728470 71.864380,147.256180 65.526627,151.094254 
z"/>
<path fill="#245875" opacity="1.000000" stroke="none" 
	d="
M49.386982,162.224792 
	C51.661541,165.340546 53.713863,168.138306 55.850426,171.050903 
	C51.334747,171.982224 51.341328,171.977478 48.607681,168.191559 
	C46.983856,165.942673 45.335342,163.711624 42.799320,160.243759 
	C42.799320,164.151230 42.996487,166.722565 42.694920,169.234009 
	C42.585869,170.142197 41.281937,170.906891 40.523247,171.737076 
	C39.807354,170.872589 38.487640,170.020309 38.469860,169.141693 
	C38.308868,161.187531 38.375565,153.228760 38.375565,144.990128 
	C41.382656,144.990128 43.869247,144.821854 46.323952,145.029831 
	C49.943615,145.336517 53.260029,147.098267 53.432598,150.795547 
	C53.559769,153.520126 51.635765,156.352890 50.565582,159.114136 
	C50.190937,160.080795 49.636875,160.977921 49.386982,162.224792 
M44.196201,156.968521 
	C47.431107,157.002731 50.140919,155.899231 49.534763,152.223770 
	C48.934727,148.585434 45.935413,148.743027 42.548664,149.207703 
	C42.842751,152.003021 43.095325,154.403748 44.196201,156.968521 
z"/>
<path fill="#184D6C" opacity="1.000000" stroke="none" 
	d="
M165.628326,164.760315 
	C165.628540,157.984955 165.628540,151.676743 165.628540,145.428513 
	C174.543472,144.136307 179.201370,145.577209 180.617599,150.243378 
	C182.065903,155.015182 179.892136,158.267029 175.318085,160.470505 
	C177.831528,163.954666 180.310913,167.391632 183.357529,171.614899 
	C175.086441,172.319382 175.013550,164.207977 170.476913,161.572723 
	C168.178299,164.254578 172.492645,170.277740 167.748947,171.949921 
	C167.041992,171.679886 166.335052,171.409851 165.628098,171.139816 
	C165.628098,169.169022 165.628098,167.198242 165.628326,164.760315 
M175.979553,150.362549 
	C174.136810,149.767120 172.294067,149.171677 170.126221,148.471191 
	C170.126221,151.876266 170.126221,154.294998 170.126221,156.699722 
	C175.985550,156.978210 176.913483,156.113113 175.979553,150.362549 
z"/>
<path fill="#1A4F6F" opacity="1.000000" stroke="none" 
	d="
M148.318237,171.735291 
	C146.928558,170.914215 145.217438,170.115555 145.195679,169.273254 
	C144.990585,161.337112 145.073761,153.393524 145.073761,145.182343 
	C150.217361,145.182343 154.955963,145.182343 159.696823,145.182343 
	C159.931259,148.185623 159.931259,148.185623 149.640717,149.289642 
	C149.542496,150.949600 149.439804,152.685059 149.310562,154.869110 
	C152.879837,154.869110 156.144409,154.869110 159.347183,154.869110 
	C159.749725,158.251572 159.749725,158.251572 149.640381,159.419815 
	C149.640381,161.959900 149.640381,164.538635 149.640381,167.556564 
	C153.124557,168.168701 156.604980,168.780182 161.220856,169.591156 
	C156.884872,173.162781 152.565948,171.117126 148.318237,171.735291 
z"/>
<path fill="#034469" opacity="1.000000" stroke="none" 
	d="
M25.969624,160.624878 
	C25.252813,160.730362 24.536003,160.835846 23.146515,161.243835 
	C22.157784,164.162781 21.841728,166.779251 21.525673,169.395706 
	C21.173641,169.366684 20.821609,169.337677 20.469578,169.308655 
	C20.469578,161.738235 20.469578,154.167816 20.469578,146.001389 
	C22.777836,146.001389 24.886854,146.001389 27.329414,146.143570 
	C28.830179,146.476898 29.997400,146.668030 31.164623,146.859177 
	C31.164623,146.859177 31.026045,146.983505 31.036858,147.298126 
	C30.574116,148.470917 30.100563,149.329102 29.295448,150.022217 
	C27.018803,149.594482 25.073719,149.331833 22.948040,149.108887 
	C22.675732,149.228775 22.492479,149.346985 22.507389,149.382904 
	C22.594618,149.592957 22.728224,149.783752 22.918201,150.343658 
	C23.323395,152.858490 23.656563,155.010681 24.192682,157.393265 
	C24.920298,158.624054 25.444962,159.624466 25.969624,160.624878 
z"/>
<path fill="#044467" opacity="1.000000" stroke="none" 
	d="
M129.234161,169.949814 
	C129.189774,169.516418 129.145386,169.083008 129.312042,168.234940 
	C129.570877,167.714951 129.687454,167.569809 129.653763,167.511612 
	C129.544769,167.323257 129.380600,167.166824 129.237701,166.998077 
	C129.191010,165.926666 129.144302,164.855270 129.311081,163.296265 
	C129.424026,162.538193 129.323502,162.267746 129.222961,161.997284 
	C129.181000,158.960876 129.139053,155.924454 129.384506,152.209717 
	C129.524628,150.355804 129.377350,149.180222 129.230057,148.004639 
	C129.187134,147.567886 129.144226,147.131149 129.572235,146.377747 
	C130.710266,147.302063 131.891312,148.518127 131.952866,149.788437 
	C132.182571,154.528488 131.918961,159.291809 132.125015,164.034042 
	C132.184265,165.397614 133.201035,166.719574 133.778778,168.060623 
	C133.778778,168.060623 133.980133,168.130692 134.052551,168.432220 
	C134.335220,168.979721 134.599136,169.071609 134.916718,169.009384 
	C135.412720,168.667496 135.908722,168.325592 136.893097,168.236816 
	C137.897430,169.470490 138.413391,170.451019 138.929337,171.431564 
	C136.921341,171.499496 134.913330,171.567444 132.395660,171.254578 
	C131.002029,170.565796 130.118103,170.257812 129.234161,169.949814 
z"/>
<path fill="#1C4E6A" opacity="1.000000" stroke="none" 
	d="
M29.627010,150.187286 
	C30.100563,149.329102 30.574116,148.470917 31.088711,147.220825 
	C34.596817,148.684372 35.199619,152.293747 33.797955,154.918777 
	C32.460117,157.424286 29.135078,158.868683 26.326611,160.702209 
	C25.444962,159.624466 24.920298,158.624054 24.584244,157.317902 
	C29.397715,156.875778 30.984829,154.578812 29.627010,150.187286 
z"/>
<path fill="#12435F" opacity="1.000000" stroke="none" 
	d="
M26.995872,146.001389 
	C24.886854,146.001389 22.777836,146.001389 20.469578,146.001389 
	C20.469578,154.167816 20.469578,161.738235 20.469578,169.308655 
	C20.821609,169.337677 21.173641,169.366684 21.525673,169.395706 
	C21.841728,166.779251 22.157784,164.162781 22.785305,161.294830 
	C23.092089,163.696609 23.328058,166.382553 22.974211,168.988388 
	C22.813829,170.169479 21.483013,171.191635 20.683159,172.285873 
	C20.223648,172.040329 19.764139,171.794785 19.304630,171.549240 
	C19.304630,162.856430 19.304630,154.163635 19.304630,145.004105 
	C21.564020,145.004105 23.828205,145.004105 26.541677,145.296677 
	C26.990967,145.589249 26.995872,146.001389 26.995872,146.001389 
z"/>
<path fill="#2A5671" opacity="1.000000" stroke="none" 
	d="
M133.648117,167.603027 
	C133.201035,166.719574 132.184265,165.397614 132.125015,164.034042 
	C131.918961,159.291809 132.182571,154.528488 131.952866,149.788437 
	C131.891312,148.518127 130.710266,147.302063 129.639252,146.053864 
	C130.355911,145.576706 131.476456,145.106827 133.517456,144.250946 
	C133.517456,152.524918 133.517456,159.835175 133.648117,167.603027 
z"/>
<path fill="#C1D7E4" opacity="1.000000" stroke="none" 
	d="
M137.693649,120.082375 
	C140.050430,114.112053 141.922729,118.813683 143.679871,120.667931 
	C142.749557,120.656197 142.077393,120.342377 141.098419,120.069366 
	C140.871048,120.559120 140.950485,121.008080 140.945831,121.706680 
	C140.400177,121.985146 139.938629,122.013962 139.278519,121.784714 
	C138.761551,121.045235 138.443130,120.563828 138.016953,120.094872 
	C137.909180,120.107330 137.693649,120.082375 137.693649,120.082375 
z"/>
<path fill="#E8F5FA" opacity="1.000000" stroke="none" 
	d="
M141.405212,120.028564 
	C142.077393,120.342377 142.749557,120.656197 143.706055,120.983688 
	C144.099503,121.913300 144.208649,122.829247 143.659210,123.870605 
	C142.032471,124.113350 141.064301,124.230682 140.047012,124.090057 
	C139.800476,123.564873 139.603073,123.297653 139.526398,122.790955 
	C139.590439,122.381905 139.533768,122.212334 139.477081,122.042770 
	C139.938629,122.013962 140.400177,121.985146 141.088409,121.362358 
	C141.345108,120.521782 141.375153,120.275177 141.405212,120.028564 
z"/>
<path fill="#2A5671" opacity="1.000000" stroke="none" 
	d="
M139.253571,171.566376 
	C138.413391,170.451019 137.897430,169.470490 137.200043,168.250854 
	C138.456284,168.309067 139.893967,168.606369 141.331635,168.903656 
	C140.747025,169.836166 140.162430,170.768661 139.253571,171.566376 
z"/>
<path fill="#E8F5FA" opacity="1.000000" stroke="none" 
	d="
M137.628922,125.042603 
	C136.882065,124.897118 136.135193,124.751633 135.262711,124.581673 
	C136.045227,123.033340 136.674561,121.788109 137.498779,120.312622 
	C137.693649,120.082375 137.909180,120.107330 137.958420,120.482323 
	C138.010468,121.901810 138.013290,122.946297 137.900314,124.246750 
	C137.732666,124.682678 137.680786,124.862640 137.628922,125.042603 
z"/>
<path fill="#8C9CA7" opacity="1.000000" stroke="none" 
	d="
M140.096146,124.348015 
	C141.064301,124.230682 142.032471,124.113350 143.375717,124.035683 
	C143.126663,124.754593 142.502518,125.433838 141.179672,126.076355 
	C139.942245,126.085083 139.403488,126.130531 138.864746,126.175980 
	C138.864746,126.175987 138.844727,126.109055 138.899597,125.860184 
	C138.966965,125.422646 138.979462,125.233971 139.243134,125.060532 
	C139.851746,124.962601 140.052353,124.720009 140.096146,124.348015 
z"/>
<path fill="#1C4E6A" opacity="1.000000" stroke="none" 
	d="
M27.329414,146.143570 
	C26.995872,146.001389 26.990967,145.589249 26.989182,145.383179 
	C28.270481,145.538101 29.553564,145.899094 31.000633,146.559631 
	C29.997400,146.668030 28.830179,146.476898 27.329414,146.143570 
z"/>
<path fill="#2A5671" opacity="1.000000" stroke="none" 
	d="
M129.176453,170.300385 
	C130.118103,170.257812 131.002029,170.565796 131.976288,171.150803 
	C131.083984,171.168854 130.101349,170.909897 129.176453,170.300385 
z"/>
<path fill="#2A5671" opacity="1.000000" stroke="none" 
	d="
M129.133911,148.395844 
	C129.377350,149.180222 129.524628,150.355804 129.450378,151.758713 
	C129.165161,150.919708 129.101471,149.853363 129.133911,148.395844 
z"/>
<path fill="#9DABB5" opacity="1.000000" stroke="none" 
	d="
M139.019196,126.427437 
	C139.403488,126.130531 139.942245,126.085083 140.884766,126.104332 
	C140.583588,126.338982 139.878616,126.508942 139.019196,126.427437 
z"/>
<path fill="#9DABB5" opacity="1.000000" stroke="none" 
	d="
M138.991974,125.045288 
	C138.979462,125.233971 138.966965,125.422646 138.875732,125.885681 
	C138.510818,125.943176 138.224655,125.726303 137.783722,125.276016 
	C137.680786,124.862640 137.732666,124.682678 138.125839,124.271469 
	C138.467148,124.040237 138.902145,123.910995 138.943283,124.193085 
	C138.986954,124.665222 138.989471,124.855255 138.991974,125.045288 
z"/>
<path fill="#2A5671" opacity="1.000000" stroke="none" 
	d="
M129.141647,162.245407 
	C129.323502,162.267746 129.424026,162.538193 129.376495,162.898315 
	C129.172394,162.823166 129.116364,162.658356 129.141647,162.245407 
z"/>
<path fill="#2A5671" opacity="1.000000" stroke="none" 
	d="
M129.151840,167.249039 
	C129.380600,167.166824 129.544769,167.323257 129.653763,167.511612 
	C129.687454,167.569809 129.570877,167.714951 129.375320,167.912781 
	C129.173691,167.836853 129.119827,167.668427 129.151840,167.249039 
z"/>
<path fill="#2A5671" opacity="1.000000" stroke="none" 
	d="
M134.761917,168.886246 
	C134.599136,169.071609 134.335220,168.979721 134.031967,168.536804 
	C134.167374,168.471970 134.390091,168.613052 134.761917,168.886246 
z"/>
<path fill="#F5FAFB" opacity="1.000000" stroke="none" 
	d="
M65.817200,150.833160 
	C71.864380,147.256180 76.868851,147.728470 80.356239,151.916794 
	C83.225418,155.362656 83.283897,160.807312 80.489655,164.338531 
	C77.027992,168.713181 70.673004,169.446274 66.313583,165.973877 
	C61.623833,162.238342 61.327518,156.635803 65.817200,150.833160 
z"/>
<path fill="#EEF8FA" opacity="1.000000" stroke="none" 
	d="
M43.772049,156.886505 
	C43.095325,154.403748 42.842751,152.003021 42.548664,149.207703 
	C45.935413,148.743027 48.934727,148.585434 49.534763,152.223770 
	C50.140919,155.899231 47.431107,157.002731 43.772049,156.886505 
z"/>
<path fill="#ECF8FA" opacity="1.000000" stroke="none" 
	d="
M176.212372,150.696045 
	C176.913483,156.113113 175.985550,156.978210 170.126221,156.699722 
	C170.126221,154.294998 170.126221,151.876266 170.126221,148.471191 
	C172.294067,149.171677 174.136810,149.767120 176.212372,150.696045 
z"/>
<path fill="#E8F5FA" opacity="1.000000" stroke="none" 
	d="
M29.295448,150.022217 
	C30.984829,154.578812 29.397715,156.875778 24.381292,157.087524 
	C23.656563,155.010681 23.323395,152.858490 23.004780,150.120667 
	C23.019337,149.535065 23.128637,149.069183 23.128637,149.069183 
	C25.073719,149.331833 27.018803,149.594482 29.295448,150.022217 
z"/>
<path fill="#12435F" opacity="1.000000" stroke="none" 
	d="
M22.948040,149.108887 
	C23.128637,149.069183 23.019337,149.535065 22.932758,149.758057 
	C22.728224,149.783752 22.594618,149.592957 22.507389,149.382904 
	C22.492479,149.346985 22.675732,149.228775 22.948040,149.108887 
z"/>
<path fill="#486475" opacity="1.000000" stroke="none" 
	d="
M138.902145,123.910995 
	C138.902145,123.910995 138.467148,124.040237 138.241623,124.015518 
	C138.013290,122.946297 138.010468,121.901810 138.066193,120.469864 
	C138.443130,120.563828 138.761551,121.045235 139.278519,121.784706 
	C139.533768,122.212334 139.590439,122.381905 139.352509,122.983650 
	C139.005981,123.580887 138.954071,123.745941 138.902145,123.910995 
z"/>
<path fill="#A4BAC9" opacity="1.000000" stroke="none" 
	d="
M141.098419,120.069366 
	C141.375153,120.275177 141.345108,120.521782 141.172501,121.112701 
	C140.950485,121.008080 140.871048,120.559120 141.098419,120.069366 
z"/>
<path fill="#D6E8ED" opacity="1.000000" stroke="none" 
	d="
M138.943283,124.193085 
	C138.954071,123.745941 139.005981,123.580887 139.231781,123.223129 
	C139.603073,123.297653 139.800476,123.564873 140.047012,124.090057 
	C140.052353,124.720009 139.851746,124.962601 139.243134,125.060532 
	C138.989471,124.855255 138.986954,124.665222 138.943283,124.193085 
z"/>
</svg>